<svg width="19" height="19" viewBox="0 0 19 19" fill="none" xmlns="http://www.w3.org/2000/svg">
<g id="customer-service">
<path id="Vector" d="M3.33321 9.1609C2.6222 7.92108 2.27889 6.90871 2.07188 5.88251C1.76571 4.36479 2.46636 2.88221 3.62703 1.93621C4.11759 1.53639 4.67992 1.67299 4.97 2.1934L5.62488 3.36829C6.14397 4.29953 6.4035 4.76515 6.35202 5.2588C6.30055 5.75245 5.95053 6.1545 5.25048 6.95861L3.33321 9.1609ZM3.33321 9.1609C4.77238 11.6703 7.03088 13.9301 9.5432 15.3709M9.5432 15.3709C10.783 16.0819 11.7954 16.4253 12.8216 16.6323C14.3393 16.9384 15.8219 16.2378 16.7679 15.0771C17.1677 14.5866 17.0311 14.0242 16.5107 13.7341L15.3358 13.0792C14.4045 12.5601 13.9389 12.3006 13.4453 12.3521C12.9516 12.4035 12.5496 12.7536 11.7455 13.4536L9.5432 15.3709Z" stroke="#001F3F" stroke-width="1.125" stroke-linejoin="round"/>
<path id="Vector_2" d="M9.5 5.4541H10.1428C10.4459 5.4541 10.5974 5.4541 10.6916 5.54563C10.7857 5.63716 10.7857 5.78448 10.7857 6.0791C10.7857 6.66836 10.7857 6.96298 10.5974 7.14604C10.4542 7.28526 10.2447 7.3186 9.88587 7.32659C9.7019 7.33068 9.60988 7.33273 9.5549 7.38738C9.5 7.44202 9.5 7.52938 9.5 7.7041V8.57913C9.5 8.87373 9.5 9.02103 9.59412 9.1126C9.68832 9.2041 9.83982 9.2041 10.1428 9.2041H10.7857M14 5.4541V7.3291M14 7.3291H12.9072C12.6647 7.3291 12.5435 7.3291 12.4682 7.25588C12.3928 7.18266 12.3928 7.0648 12.3928 6.8291V5.4541M14 7.3291V9.2041" stroke="#001F3F" stroke-width="1.125" stroke-linecap="round" stroke-linejoin="round"/>
<path id="Vector_3" d="M8 3.43299C8.06675 3.35799 8.13613 3.28448 8.20805 3.21257C10.2193 1.20128 13.4803 1.20128 15.4915 3.21257C17.5028 5.22385 17.5028 8.48478 15.4915 10.4961C15.4196 10.568 15.3461 10.6374 15.2711 10.7041" stroke="#001F3F" stroke-width="1.125" stroke-linecap="round"/>
</g>
</svg>
