<svg width="19" height="19" viewBox="0 0 19 19" fill="none" xmlns="http://www.w3.org/2000/svg">
<g id="facebook-02">
<path id="Vector" fill-rule="evenodd" clip-rule="evenodd" d="M5.13636 7.95408C4.40304 7.95408 4.25 8.098 4.25 8.7874V10.0374C4.25 10.7269 4.40304 10.8708 5.13636 10.8708H6.90909V15.8708C6.90909 16.5602 7.06213 16.7041 7.79545 16.7041H9.56818C10.3015 16.7041 10.4545 16.5602 10.4545 15.8708V10.8708H12.445C13.0012 10.8708 13.1446 10.7691 13.2973 10.2664L13.6772 9.01638C13.9389 8.15515 13.7776 7.95408 12.8249 7.95408H10.4545V5.87077C10.4545 5.41053 10.8514 5.03743 11.3409 5.03743H13.8636C14.5969 5.03743 14.75 4.89354 14.75 4.2041V2.53743C14.75 1.84799 14.5969 1.7041 13.8636 1.7041H11.3409C8.89325 1.7041 6.90909 3.56958 6.90909 5.87077V7.95408H5.13636Z" stroke="#001F3F" stroke-width="1.125" stroke-linejoin="round"/>
</g>
</svg>
