<svg width="19" height="19" viewBox="0 0 19 19" fill="none" xmlns="http://www.w3.org/2000/svg">
<g id="instagram">
<path id="Vector" d="M2.375 9.2041C2.375 5.84535 2.375 4.16597 3.41843 3.12253C4.46187 2.0791 6.14124 2.0791 9.5 2.0791C12.8587 2.0791 14.5381 2.0791 15.5816 3.12253C16.625 4.16597 16.625 5.84535 16.625 9.2041C16.625 12.5628 16.625 14.2422 15.5816 15.2857C14.5381 16.3291 12.8587 16.3291 9.5 16.3291C6.14124 16.3291 4.46187 16.3291 3.41843 15.2857C2.375 14.2422 2.375 12.5628 2.375 9.2041Z" stroke="#001F3F" stroke-width="1.125" stroke-linejoin="round"/>
<path id="Vector_2" d="M12.875 9.2041C12.875 11.0681 11.364 12.5791 9.5 12.5791C7.63604 12.5791 6.125 11.0681 6.125 9.2041C6.125 7.34014 7.63604 5.8291 9.5 5.8291C11.364 5.8291 12.875 7.34014 12.875 9.2041Z" stroke="#001F3F" stroke-width="1.125"/>
<path id="Vector_3" d="M13.6309 5.0791H13.6241" stroke="#001F3F" stroke-width="1.5" stroke-linecap="round" stroke-linejoin="round"/>
</g>
</svg>
