<svg width="19" height="19" viewBox="0 0 19 19" fill="none" xmlns="http://www.w3.org/2000/svg">
<g id="linkedin-01">
<path id="Vector" d="M5.75 7.7041V12.9541" stroke="#001F3F" stroke-width="1.125" stroke-linecap="round" stroke-linejoin="round"/>
<path id="Vector_2" d="M8.75 9.9541V12.9541M8.75 9.9541C8.75 8.71143 9.75732 7.7041 11 7.7041C12.2427 7.7041 13.25 8.71143 13.25 9.9541V12.9541M8.75 9.9541V7.7041" stroke="#001F3F" stroke-width="1.125" stroke-linecap="round" stroke-linejoin="round"/>
<path id="Vector_3" d="M5.75601 5.4541H5.74927" stroke="#001F3F" stroke-width="1.5" stroke-linecap="round" stroke-linejoin="round"/>
<path id="Vector_4" d="M2.375 9.2041C2.375 5.84535 2.375 4.16597 3.41843 3.12253C4.46187 2.0791 6.14124 2.0791 9.5 2.0791C12.8587 2.0791 14.5381 2.0791 15.5816 3.12253C16.625 4.16597 16.625 5.84535 16.625 9.2041C16.625 12.5628 16.625 14.2422 15.5816 15.2857C14.5381 16.3291 12.8587 16.3291 9.5 16.3291C6.14124 16.3291 4.46187 16.3291 3.41843 15.2857C2.375 14.2422 2.375 12.5628 2.375 9.2041Z" stroke="#001F3F" stroke-width="1.125" stroke-linejoin="round"/>
</g>
</svg>
