<svg width="19" height="19" viewBox="0 0 19 19" fill="none" xmlns="http://www.w3.org/2000/svg">
<g id="mail-01">
<path id="Vector" d="M2 4.7041L7.18477 7.64183C9.0962 8.72485 9.9038 8.72485 11.8152 7.64183L17 4.7041" stroke="#001F3F" stroke-width="1.5" stroke-linejoin="round"/>
<path id="Vector_2" d="M2.01183 10.3108C2.06086 12.61 2.08537 13.7595 2.93372 14.6112C3.78206 15.4627 4.96275 15.4923 7.32412 15.5517C8.77948 15.5883 10.2205 15.5883 11.6759 15.5517C14.0373 15.4923 15.2179 15.4627 16.0663 14.6112C16.9147 13.7595 16.9392 12.61 16.9881 10.3108C17.004 9.57153 17.004 8.83668 16.9881 8.0974C16.9392 5.79825 16.9147 4.64867 16.0663 3.7971C15.2179 2.94552 14.0373 2.91586 11.6759 2.85653C10.2205 2.81996 8.77947 2.81996 7.32411 2.85652C4.96275 2.91585 3.78206 2.94551 2.93371 3.79709C2.08537 4.64866 2.06085 5.79824 2.01182 8.0974C1.99605 8.83668 1.99606 9.57153 2.01183 10.3108Z" stroke="#001F3F" stroke-width="1.5" stroke-linejoin="round"/>
</g>
</svg>
